# This file uses centimeters as units for non-parametric coordinates.

mtllib pen.mtl
g default
v 0.001259 0.062123 0.008485
v 0.003555 0.062144 0.005326
v 0.001967 0.062123 0.001757
v -0.001917 0.062081 0.001349
v -0.004213 0.062060 0.004508
v -0.002625 0.062081 0.008076
v 0.000859 0.098244 0.008407
v 0.003131 0.098264 0.005281
v 0.001560 0.098244 0.001751
v -0.002283 0.098203 0.001346
v -0.004555 0.098182 0.004472
v -0.002984 0.098203 0.008003
v -0.002165 0.086876 0.001355
v 0.001682 0.086917 0.001760
v 0.003255 0.086938 0.005294
v 0.000981 0.086917 0.008423
v -0.002866 0.086876 0.008018
v -0.004439 0.086855 0.004484
v -0.002022 0.073408 0.001370
v 0.001825 0.073449 0.001775
v 0.003397 0.073470 0.005309
v 0.001123 0.073449 0.008438
v -0.002723 0.073408 0.008033
v -0.004296 0.073387 0.004499
v 0.000568 0.098554 0.007760
v 0.002423 0.098571 0.005207
v 0.001140 0.098554 0.002323
v -0.001999 0.098520 0.001993
v -0.003854 0.098503 0.004546
v -0.002571 0.098520 0.007429
v -0.003062 0.061515 0.001092
v -0.003141 0.072842 0.001094
v -0.004813 0.061496 0.003511
v -0.004896 0.072823 0.003502
v -0.002667 0.035761 0.002107
v -0.003292 0.035201 0.001976
v -0.003903 0.035750 0.003633
v -0.004235 0.035189 0.003143
v 0.001494 0.061777 0.008624
v 0.001353 0.073484 0.008576
v 0.004008 0.061800 0.005374
v 0.003842 0.073507 0.005356
v 0.002226 0.061777 0.001670
v 0.002078 0.073484 0.001689
v -0.002070 0.061731 0.001218
v -0.002177 0.073438 0.001241
v -0.003338 0.061145 0.000944
v -0.003417 0.072853 0.000946
v -0.005256 0.061124 0.003433
v -0.005338 0.072832 0.003424
v -0.004584 0.061708 0.004469
v -0.004667 0.073415 0.004460
v -0.002802 0.061731 0.008172
v -0.002902 0.073438 0.008128
v 0.000752 0.099432 0.007871
v 0.002784 0.099450 0.005245
v 0.001344 0.099432 0.002252
v -0.002127 0.099395 0.001887
v -0.004159 0.099376 0.004514
v -0.002719 0.099395 0.007506
v -0.002447 0.099066 0.001216
v 0.001803 0.099112 0.001663
v 0.003567 0.099135 0.005327
v 0.001079 0.099112 0.008544
v -0.003171 0.099066 0.008096
v -0.004935 0.099043 0.004432
v -0.002918 0.034901 0.001995
v -0.003610 0.034322 0.001854
v -0.004273 0.034888 0.003564
v -0.004644 0.034309 0.003055
v 0.003875 -0.070522 0.007294
v 0.004237 -0.070522 0.003855
v 0.001440 -0.070554 0.001822
v -0.001720 -0.070586 0.003228
v -0.002082 -0.070586 0.006667
v 0.000715 -0.070554 0.008700
v 0.002250 0.082671 0.007123
v 0.002612 0.082671 0.003684
v -0.000185 0.082639 0.001651
v -0.003344 0.082607 0.003057
v -0.003706 0.082607 0.006496
v -0.000909 0.082639 0.008529
v 0.001018 -0.081022 0.006889
v -0.000296 -0.081037 0.005933
v -0.000126 -0.081037 0.004317
v 0.001359 -0.081022 0.003656
v 0.002673 -0.081007 0.004612
v 0.002503 -0.081007 0.006228
v 0.001176 -0.083270 0.005621
v 0.000894 -0.083273 0.005417
v 0.000931 -0.083273 0.005070
v 0.001249 -0.083270 0.004929
v 0.001531 -0.083267 0.005133
v 0.001494 -0.083267 0.005480
v 0.001825 0.083164 0.006817
v 0.002133 0.083164 0.003894
v -0.000245 0.083137 0.002166
v -0.002930 0.083110 0.003361
v -0.003238 0.083110 0.006284
v -0.000860 0.083137 0.008012
v 0.001148 -0.084216 0.005309
v 0.001214 -0.084215 0.005357
v 0.001157 -0.084216 0.005228
v 0.001231 -0.084215 0.005195
v 0.001297 -0.084214 0.005243
v 0.001288 -0.084214 0.005324
vt 0.476314 0.677480
vt 0.476248 0.565169
vt 0.575679 0.565169
vt 0.575665 0.677480
vt 0.676237 0.565169
vt 0.676150 0.677480
vt 0.007967 0.677480
vt 0.008053 0.565169
vt 0.126793 0.565169
vt 0.126707 0.677480
vt 0.150950 0.671992
vt 0.151610 0.559682
vt 0.223295 0.559653
vt 0.223121 0.671964
vt 0.245066 0.677480
vt 0.245046 0.565169
vt 0.361236 0.565169
vt 0.361335 0.677480
vt 0.707696 0.380119
vt 0.806058 0.322282
vt 0.904420 0.380119
vt 0.904420 0.495793
vt 0.806058 0.553630
vt 0.707696 0.495793
vt 0.126699 0.923333
vt 0.245068 0.923333
vt 0.007958 0.923333
vt 0.575663 0.923333
vt 0.676142 0.923333
vt 0.476320 0.923333
vt 0.361345 0.923333
vt 0.685614 0.367135
vt 0.806058 0.296314
vt 0.926501 0.367135
vt 0.926501 0.508776
vt 0.806058 0.579597
vt 0.685614 0.508776
vt 0.174950 0.302410
vt 0.164597 0.307897
vt 0.220560 0.307897
vt 0.212121 0.302380
vt 0.575496 0.677173
vt 0.575512 0.568515
vt 0.472845 0.568515
vt 0.472909 0.677173
vt 0.679533 0.677173
vt 0.679618 0.568515
vt 0.123861 0.677173
vt 0.123942 0.568515
vt 0.011435 0.568515
vt 0.011350 0.677173
vt 0.147451 0.671863
vt 0.221807 0.671836
vt 0.221992 0.563177
vt 0.148103 0.563206
vt 0.364167 0.677173
vt 0.364072 0.568515
vt 0.245246 0.568515
vt 0.245269 0.677173
vt 0.474377 0.918041
vt 0.366409 0.918041
vt 0.245804 0.918041
vt 0.121935 0.918041
vt 0.677570 0.918041
vt 0.575140 0.918041
vt 0.123853 0.915031
vt 0.123861 0.806373
vt 0.011350 0.806373
vt 0.011342 0.915031
vt 0.679525 0.915031
vt 0.679533 0.806373
vt 0.575496 0.806373
vt 0.575495 0.915031
vt 0.472909 0.806373
vt 0.472915 0.915031
vt 0.364167 0.806373
vt 0.364176 0.915031
vt 0.245269 0.806373
vt 0.245271 0.915031
vt 0.009386 0.918041
vt 0.171511 0.310811
vt 0.210133 0.310783
vt 0.219091 0.316120
vt 0.161050 0.316120
vt 0.141452 0.192110
vt 0.922433 0.192110
vt 0.922433 0.213303
vt 0.141452 0.213303
vt 0.141452 0.086146
vt 0.922433 0.086146
vt 0.922433 0.107339
vt 0.141452 0.107339
vt 0.922433 0.128531
vt 0.141452 0.128531
vt 0.922433 0.149724
vt 0.141452 0.149724
vt 0.922433 0.170917
vt 0.141452 0.170917
vt 0.994973 0.159687
vt 0.994973 0.149724
vt 0.994973 0.139762
vt 0.994973 0.129800
vt 0.994973 0.179611
vt 0.994973 0.169649
vt 0.074838 0.192110
vt 0.007279 0.213303
vt 0.007286 0.108809
vt 0.074633 0.130100
vt 0.074635 0.153166
vt 0.074822 0.175838
vt 0.978070 0.168951
vt 0.978070 0.149724
vt 0.978070 0.130498
vt 0.978070 0.111271
vt 0.978070 0.092044
vt 0.978070 0.207404
vt 0.978070 0.188178
vt 0.985876 0.163715
vt 0.985876 0.149724
vt 0.985876 0.135733
vt 0.985876 0.121742
vt 0.985876 0.107750
vt 0.985876 0.191698
vt 0.985876 0.177707
vt 0.007279 0.086146
vt 0.994973 0.119838
vn 0.380027 0.006231 0.924955
vn 0.380057 0.008453 0.924924
vn 0.994404 0.014232 0.104683
vn 0.994434 0.011893 0.104686
vn 0.564328 0.008453 -0.825507
vn 0.564305 0.006231 -0.825543
vn 0.156189 -0.005385 -0.987713
vn -0.265282 0.009932 -0.964120
vn -0.530136 0.099900 -0.842007
vn -0.539249 -0.016551 -0.841984
vn -0.784648 -0.009099 -0.619875
vn -0.785796 0.120739 -0.606586
vn -0.999536 0.005110 0.030036
vn -0.872251 -0.010497 0.488946
vn -0.564400 -0.001674 0.825500
vn -0.564330 -0.003895 0.825540
vn 0.011542 0.998449 0.054466
vn 0.049087 0.998781 0.005169
vn 0.022631 0.998449 -0.050866
vn -0.032713 0.997856 -0.056692
vn -0.070258 0.997501 -0.007394
vn -0.043802 0.997855 0.048640
vn -0.380331 0.013521 -0.924752
vn -0.994472 0.008139 -0.104690
vn 0.564166 0.023649 -0.825323
vn 0.994073 0.029462 0.104648
vn 0.379937 0.023649 0.924710
vn -0.564560 0.013521 0.825281
vn 0.522298 -0.728241 0.443699
vn 0.779561 -0.018986 0.626038
vn 0.779496 -0.021003 0.626055
vn 0.522299 -0.728241 0.443699
vn -0.837794 -0.005505 0.545958
vn -0.823641 -0.022300 0.566674
vn 0.773327 -0.025699 0.633486
vn 0.786893 -0.027931 0.616458
vn 0.226920 -0.035321 -0.973273
vn -0.651148 -0.017217 -0.758755
vn -0.818826 -0.027815 0.573368
vn -0.818826 -0.027815 0.573368
vn -0.780802 -0.011125 -0.624680
vn -0.994431 -0.012192 -0.104686
vn -0.992966 -0.055612 -0.104531
vn -0.402310 -0.032676 -0.914920
vn -0.406540 -0.006860 -0.913607
vn -0.587874 -0.006860 0.808923
vn -0.584010 -0.032676 0.811089
vn 0.222658 -0.018063 0.974729
vn -0.142655 -0.015807 0.989646
vn 0.803807 -0.117596 0.583151
vn 0.803808 -0.117589 0.583152
vn 0.802941 0.009262 0.595986
vn 0.802978 0.009242 0.595937
vn 0.587907 0.003803 -0.808920
vn 0.585719 -0.019113 -0.810289
vn 0.896450 -0.022389 -0.442578
vn 0.995935 -0.010983 -0.089407
vn -0.014541 -0.998361 -0.055349
vn 0.046918 -0.997702 -0.048879
vn 0.072044 -0.997373 0.007584
vn 0.035711 -0.997702 0.057577
vn -0.025748 -0.998361 0.051108
vn -0.050874 -0.998691 -0.005356
vn 0.406660 -0.033884 0.912951
vn 0.406558 0.005188 0.913610
vn -0.587889 -0.005476 0.808923
vn -0.587023 -0.044539 0.808344
vn -0.994447 -0.010807 -0.104687
vn -0.993267 -0.049867 -0.104563
vn -0.406556 -0.005476 -0.913610
vn -0.405829 -0.044539 -0.912863
vn 0.587892 0.005188 -0.808923
vn 0.587855 -0.033884 -0.808257
vn 0.994450 0.010519 0.104687
vn 0.994099 -0.028557 0.104651
vn -0.227769 -0.002841 0.973711
vn -0.233282 0.025774 0.972067
vn -0.548935 0.711914 -0.438005
vn -0.548935 0.711914 -0.438005
vn -0.798194 0.018667 -0.602111
vn -0.798232 0.017427 -0.602097
vn 0.842022 0.021878 -0.538999
vn 0.855303 0.005836 -0.518096
vn 0.799386 0.011164 0.600714
vn 0.799386 0.011164 0.600714
vn -0.234959 0.034682 0.971386
vn -0.234959 0.034682 0.971386
vn -0.798483 0.008007 -0.601964
vn -0.798483 0.008007 -0.601964
vn 0.837615 0.027010 -0.545593
vn 0.837615 0.027010 -0.545593
vn -0.397755 -0.632233 -0.664885
vn -0.662415 -0.745885 -0.069730
vn -0.527487 -0.632231 0.567488
vn 0.545266 -0.542806 -0.638785
vn 0.808843 0.011625 0.587910
vn 0.808929 0.001302 0.587905
vn 0.913619 0.001302 -0.406569
vn 0.913536 0.011625 -0.406592
vn 0.104774 -0.007932 -0.994464
vn 0.104667 0.002391 -0.994504
vn -0.808761 -0.017167 -0.587887
vn -0.808894 -0.006844 -0.587915
vn -0.913451 -0.017167 0.406586
vn -0.913587 -0.006844 0.406586
vn -0.104606 -0.007932 0.994482
vn -0.104719 0.002391 0.994499
vn 0.010635 -0.999943 0.001113
vn 0.010635 -0.999943 0.001113
vn 0.010635 -0.999943 0.001113
vn 0.010635 -0.999943 0.001113
vn 0.010635 -0.999943 0.001113
vn 0.010635 -0.999943 0.001113
vn 0.071370 0.995737 0.058432
vn 0.081973 0.995737 -0.042289
vn 0.000053 0.994802 -0.101831
vn -0.092469 0.993867 -0.060653
vn -0.103072 0.993867 0.040067
vn -0.021153 0.994802 0.099610
vn -0.100593 -0.195701 0.975491
vn -0.893821 -0.204757 0.398946
vn -0.791153 -0.204758 -0.576326
vn 0.104744 -0.195701 -0.975054
vn 0.897972 -0.186645 -0.398509
vn 0.795304 -0.186645 0.576763
vn -0.086676 -0.481095 0.872373
vn -0.795775 -0.489192 0.356978
vn -0.703995 -0.489192 -0.514862
vn 0.096882 -0.481095 -0.871299
vn 0.805980 -0.473002 -0.355902
vn 0.714200 -0.473002 0.515934
vn -0.876275 -0.280727 0.391579
vn -0.097875 -0.271840 0.957352
vn -0.775528 -0.280727 -0.565463
vn 0.103622 -0.271841 -0.956747
vn 0.882038 -0.262955 -0.390978
vn 0.781285 -0.262954 0.566082
s 1
g polySurface1
usemtl blinn1SG
f 40/1/1 39/2/2 41/3/3 42/4/4
f 42/4/4 41/3/3 43/5/5 44/6/6
f 44/7/6 43/8/5 45/9/7 46/10/8
f 48/11/9 47/12/10 49/13/11 50/14/12
f 52/15/13 51/16/14 53/17/15 54/18/16
f 54/18/16 53/17/15 39/2/2 40/1/1
f 55/19/17 56/20/18 57/21/19 58/22/20 59/23/21 60/24/22
f 61/25/23 46/10/8 52/15/13 66/26/24
f 62/27/25 44/7/6 46/10/8 61/25/23
f 63/28/26 42/4/4 44/6/6 62/29/25
f 64/30/27 40/1/1 42/4/4 63/28/26
f 65/31/28 54/18/16 40/1/1 64/30/27
f 66/26/24 52/15/13 54/18/16 65/31/28
f 56/20/18 55/19/17 64/32/27 63/33/26
f 57/21/19 56/20/18 63/33/26 62/34/25
f 58/22/20 57/21/19 62/34/25 61/35/23
f 59/23/21 58/22/20 61/35/23 66/36/24
f 60/24/22 59/23/21 66/36/24 65/37/28
f 55/19/17 60/24/22 65/37/28 64/32/27
s 4
f 68/38/29 67/39/30 69/40/31 70/41/32
s 1
f 46/10/8 45/9/7 47/12/10 48/11/9
f 51/16/14 52/15/13 50/14/33 49/13/34
f 48/11/9 50/14/12 52/15/13 46/10/8
s 4
f 69/40/31 67/39/30 45/9/35 51/16/36
s 1
f 47/12/10 45/9/7 67/39/37 68/38/38
f 51/16/14 49/13/34 70/41/39 69/40/40
f 68/38/38 70/41/41 49/13/11 47/12/10
s 4
f 21/42/42 2/43/43 1/44/44 22/45/45
f 20/46/46 3/47/47 2/43/43 21/42/42
f 19/48/48 4/49/49 3/50/47 20/51/46
f 32/52/50 34/53/51 33/54/52 31/55/53
f 23/56/54 6/57/55 5/58/56 24/59/57
f 22/45/45 1/44/44 6/57/55 23/56/54
f 25/60/58 30/61/59 29/62/60 28/63/61 27/64/62 26/65/63
f 10/66/64 13/67/65 14/68/66 9/69/67
f 9/70/67 14/71/66 15/72/68 8/73/69
f 8/73/69 15/72/68 16/74/70 7/75/71
f 7/75/71 16/74/70 17/76/72 12/77/73
f 12/77/73 17/76/72 18/78/74 11/79/75
f 11/79/75 18/78/74 13/67/65 10/66/64
f 14/68/66 13/67/65 19/48/48 20/51/46
f 15/72/68 14/71/66 20/46/46 21/42/42
f 16/74/70 15/72/68 21/42/42 22/45/45
f 17/76/72 16/74/70 22/45/45 23/56/54
f 18/78/74 17/76/72 23/56/54 24/59/57
f 13/67/65 18/78/74 24/59/57 19/48/48
f 25/60/58 26/65/63 8/73/69 7/75/71
f 26/65/63 27/64/62 9/70/67 8/73/69
f 27/80/62 28/63/61 10/66/64 9/69/67
f 28/63/61 29/62/60 11/79/75 10/66/64
f 29/62/60 30/61/59 12/77/73 11/79/75
f 30/61/59 25/60/58 7/75/71 12/77/73
f 32/52/50 19/48/48 24/59/57 34/53/51
f 19/48/48 32/52/76 31/55/77 4/49/49
s 9
f 36/81/78 38/82/79 37/83/80 35/84/81
s 4
f 5/58/56 33/54/82 34/53/83 24/59/57
f 36/81/84 31/55/53 33/54/52 38/82/85
f 31/55/77 36/81/86 35/84/87 4/49/49
s 9
f 35/84/81 37/83/80 5/58/88 4/49/89
s 4
f 5/58/56 37/83/90 38/82/91 33/54/82
f 39/2/92 1/44/44 2/43/43 41/3/93
f 41/3/93 2/43/43 3/47/47 43/5/94
f 43/8/94 3/50/47 4/49/49 45/9/35
f 51/16/36 5/58/56 6/57/55 53/17/95
f 53/17/95 6/57/55 1/44/44 39/2/92
f 45/9/35 4/49/49 5/58/56 51/16/36
s 10
f 77/85/96 71/86/97 72/87/98 78/88/99
f 78/89/99 72/90/98 73/91/100 79/92/101
f 79/92/101 73/91/100 74/93/102 80/94/103
f 80/94/103 74/93/102 75/95/104 81/96/105
f 81/96/105 75/95/104 76/97/106 82/98/107
f 82/98/107 76/97/106 71/86/97 77/85/96
f 102/99/108 101/100/109 103/101/110 104/102/111 105/103/112 106/104/113
s 10
f 95/105/114 96/106/115 97/107/116 98/108/117 99/109/118 100/110/119
f 83/111/120 76/97/106 75/95/104 84/112/121
f 84/112/121 75/95/104 74/93/102 85/113/122
f 85/113/122 74/93/102 73/91/100 86/114/123
f 86/114/123 73/91/100 72/90/98 87/115/124
f 87/116/124 72/87/98 71/86/97 88/117/125
f 88/117/125 71/86/97 76/97/106 83/111/120
f 89/118/126 83/111/120 84/112/121 90/119/127
f 90/119/127 84/112/121 85/113/122 91/120/128
f 91/120/128 85/113/122 86/114/123 92/121/129
f 92/121/129 86/114/123 87/115/124 93/122/130
f 93/123/130 87/116/124 88/117/125 94/124/131
f 89/118/126 94/124/131 88/117/125 83/111/120
f 95/105/114 77/85/96 78/88/99 96/106/115
f 96/125/115 78/89/99 79/92/101 97/107/116
f 97/107/116 79/92/101 80/94/103 98/108/117
f 98/108/117 80/94/103 81/96/105 99/109/118
f 99/109/118 81/96/105 82/98/107 100/110/119
f 95/105/114 100/110/119 82/98/107 77/85/96
f 89/118/126 90/119/127 101/100/132 102/99/133
f 90/119/127 91/120/128 103/101/134 101/100/132
f 91/120/128 92/121/129 104/102/135 103/101/134
f 92/121/129 93/122/130 105/126/136 104/102/135
f 93/123/130 94/124/131 106/104/137 105/103/136
f 94/124/131 89/118/126 102/99/133 106/104/137
