# Blender v3.0.1 OBJ File: 'laptop_collision.blend'
# www.blender.org
o laptop_body_collision.006
v -0.146323 0.000193 -0.109852
v -0.150926 0.000193 -0.109440
v -0.150926 0.011273 -0.109440
v -0.146323 0.011273 -0.109852
v -0.156691 0.000193 -0.101504
v -0.146341 0.000193 -0.101481
v -0.146341 0.011273 -0.101481
v -0.156691 0.011273 -0.101504
v -0.155184 0.011273 -0.106268
v -0.155184 0.000193 -0.106268
vt 0.375000 0.750000
vt 0.375000 0.892483
vt 0.625000 0.892484
vt 0.625000 0.750000
vt 0.375000 0.250000
vt 0.375000 0.500000
vt 0.625000 0.500000
vt 0.625000 0.250000
vt 0.767483 0.750000
vt 0.875000 0.658741
vt 0.875000 0.500000
vt 0.375000 0.091259
vt 0.625000 0.091259
vt 0.375000 0.000000
vt 0.625000 0.000000
vt 0.125000 0.500000
vt 0.125000 0.658741
vt 0.232516 0.750000
vn -0.0892 0.0000 -0.9960
vn -0.0022 0.0000 1.0000
vn 1.0000 0.0000 0.0022
vn 0.0000 1.0000 0.0000
vn -0.9534 0.0000 -0.3016
vn -0.5974 0.0000 -0.8019
vn 0.0000 -1.0000 -0.0000
s 1
f 1/1/1 2/2/1 3/3/1 4/4/1
f 5/5/2 6/6/2 7/7/2 8/8/2
f 6/6/3 1/1/3 4/4/3 7/7/3
f 7/7/4 4/4/4 3/9/4 9/10/4 8/11/4
f 10/12/5 5/5/5 8/8/5 9/13/5
f 2/14/6 10/12/6 9/13/6 3/15/6
f 5/16/7 10/17/7 2/18/7 1/1/7 6/6/7
