# Blender v3.0.1 OBJ File: 'laptop_collision.blend'
# www.blender.org
o laptop_screen_collision.013
v -0.155184 0.016182 0.106819
v -0.155184 0.011431 0.106818
v -0.156691 0.011432 0.102054
v -0.156691 0.016182 0.102055
v -0.146341 0.011432 0.102031
v -0.146341 0.016182 0.102032
v -0.146323 0.016181 0.110402
v -0.150926 0.016181 0.109990
v -0.150926 0.011431 0.109990
v -0.146323 0.011431 0.110402
vt 0.375000 0.091259
vt 0.625000 0.091259
vt 0.625000 0.250000
vt 0.375000 0.250000
vt 0.625000 0.500000
vt 0.375000 0.500000
vt 0.125000 0.500000
vt 0.375000 0.750000
vt 0.232516 0.750000
vt 0.125000 0.658741
vt 0.375000 0.000000
vt 0.625000 0.000000
vt 0.875000 0.500000
vt 0.875000 0.658741
vt 0.767483 0.750000
vt 0.625000 0.750000
vt 0.625000 0.892484
vt 0.375000 0.892483
vn 0.9534 0.0000 -0.3016
vn 0.0022 -0.0001 1.0000
vn -0.0000 -1.0000 -0.0001
vn 0.5974 0.0001 -0.8020
vn -0.0000 1.0000 0.0001
vn 0.0891 0.0000 -0.9960
vn -1.0000 -0.0000 0.0022
s 1
f 1/1/1 2/2/1 3/3/1 4/4/1
f 4/4/2 3/3/2 5/5/2 6/6/2
f 4/7/3 6/6/3 7/8/3 8/9/3 1/10/3
f 8/11/4 9/12/4 2/2/4 1/1/4
f 5/5/5 3/13/5 2/14/5 9/15/5 10/16/5
f 7/8/6 10/16/6 9/17/6 8/18/6
f 6/6/7 5/5/7 10/16/7 7/8/7
